<svg xmlns="http://www.w3.org/2000/svg" x="0px" y="0px"
width="48" height="48"
viewBox="0 0 172 172"
style=" fill:#000000;"><defs><linearGradient x1="50.03408" y1="23.70733" x2="121.346" y2="147.22483" gradientUnits="userSpaceOnUse" id="color-1_qcorqjBI0xqK_gr1"><stop offset="0" stop-color="#155cde"></stop><stop offset="1" stop-color="#1f7fe5"></stop></linearGradient></defs><g fill="none" fill-rule="nonzero" stroke="none" stroke-width="1" stroke-linecap="butt" stroke-linejoin="miter" stroke-miterlimit="10" stroke-dasharray="" stroke-dashoffset="0" font-family="none" font-weight="none" font-size="none" text-anchor="none" style="mix-blend-mode: normal"><path d="M0,172v-172h172v172z" fill="none"></path><g><circle cx="24" cy="24" transform="scale(3.58333,3.58333)" r="20" fill="url(#color-1_qcorqjBI0xqK_gr1)"></circle><path d="M86,136.16667c-5.92683,0 -10.75,-4.82317 -10.75,-10.75v-29.11817l-23.40275,-36.77575c-3.182,-5.00233 -1.70208,-11.66017 3.29667,-14.84217c5.01308,-3.17842 11.66375,-1.6985 14.84217,3.30025l16.01392,25.16217l16.01392,-25.16217c3.182,-4.99875 9.83983,-6.47508 14.83858,-3.30025h0.00358c5.00233,3.182 6.47867,9.83983 3.29667,14.84217l-23.40275,36.77575v29.11817c0,5.92683 -4.82317,10.75 -10.75,10.75zM60.91308,50.16667c-0.65933,0 -1.32583,0.17917 -1.92067,0.559c-1.66625,1.06067 -2.16075,3.28233 -1.10008,4.94858l24.52433,38.53875v31.20367c0,1.97442 1.60892,3.58333 3.58333,3.58333c1.97442,0 3.58333,-1.60892 3.58333,-3.58333v-31.20367l24.52433,-38.53875c1.06067,-1.66625 0.56975,-3.88075 -1.0965,-4.945v0c-1.66625,-1.05708 -3.88792,-0.56617 -4.95217,1.10008l-22.059,34.66517l-22.059,-34.66875c-0.68442,-1.07142 -1.84183,-1.65908 -3.02792,-1.65908z" fill="#000000" opacity="0.05"></path><path d="M86,134.375c-4.93783,0 -8.95833,-4.0205 -8.95833,-8.95833v-29.64133l-23.68225,-37.2165c-2.65167,-4.16742 -1.419,-9.71442 2.74842,-12.36967c4.16742,-2.64808 9.71442,-1.41542 12.36967,2.74842l17.5225,27.54508l17.52608,-27.5415c2.65167,-4.16383 8.19867,-5.40008 12.36608,-2.74842v0c4.16742,2.65167 5.40008,8.20225 2.74842,12.36967l-23.68225,37.21292v29.64133c0,4.93783 -4.0205,8.95833 -8.95833,8.95833zM60.9095,48.375c-0.98542,0 -1.98517,0.27233 -2.87742,0.8385c-2.49758,1.591 -3.23933,4.91992 -1.64833,7.42108l24.24125,38.098v30.68408c0,2.96342 2.41158,5.375 5.375,5.375c2.96342,0 5.375,-2.41158 5.375,-5.375v-30.68408l24.24483,-38.098c1.591,-2.50117 0.84925,-5.8265 -1.64833,-7.42108v0c-2.50117,-1.58742 -5.8265,-0.84567 -7.42108,1.64833l-20.55042,32.293l-20.54683,-32.28942c-1.02483,-1.60892 -2.76633,-2.49042 -4.54367,-2.49042z" fill="#000000" opacity="0.07"></path><path d="M114.93183,47.70133c-3.34325,-2.12492 -7.76867,-1.1395 -9.89358,2.20017l-19.03825,29.91725l-19.03825,-29.91725c-2.12492,-3.33967 -6.55392,-4.32508 -9.89358,-2.20017c-3.33967,2.12492 -4.32508,6.5575 -2.20017,9.89358l23.96533,37.65725v30.1645c0,3.956 3.21067,7.16667 7.16667,7.16667c3.956,0 7.16667,-3.21067 7.16667,-7.16667v-30.1645l23.96175,-37.65725c2.12492,-3.33608 1.14308,-7.76508 -2.19658,-9.89358z" fill="#ffffff"></path></g></g></svg>